<svg width="96" height="96" xmlns="http://www.w3.org/2000/svg" xmlns:xlink="http://www.w3.org/1999/xlink" overflow="hidden"><defs><clipPath id="clip0"><rect x="0" y="0" width="96" height="96"/></clipPath></defs><g clip-path="url(#clip0)"><path d="M48 10C27 10 10 27 10 48 10 69 27 86 48 86 69 86 86 69 86 48 86 27 69 10 48 10ZM38.9 80.7 41.5 79.1 33.9 67.4 20.4 63.8 19.6 66.8C16.3 61.8 14.2 55.8 14 49.4L16.4 51.4 25.2 40.6 24.5 26.7 21.5 26.9C25.3 22.1 30.4 18.3 36.3 16.2L35 19 48 24 61 19 59.9 16.1C65.8 18.3 70.8 22 74.7 26.8L71.7 26.6 71 40.5 79.8 51.3 82.2 49.3C81.9 55.7 79.9 61.6 76.6 66.7L75.8 63.7 62.3 67.3 54.7 79 57.3 80.6C54.4 81.4 51.3 81.9 48.2 81.9 45.1 81.9 41.8 81.6 38.9 80.7Z"/><path d="M61 46 48 36 35 46 40 61 48 61 56 61Z"/></g></svg>