<svg id="Ebene_1" data-name="Ebene 1" xmlns="http://www.w3.org/2000/svg" xmlns:xlink="http://www.w3.org/1999/xlink" viewBox="0 0 93.49 34.3"><defs><style>.cls-1{fill:none;}.cls-2{font-size:28.09px;}.cls-2,.cls-5{font-family:MyriadPro-Regular, Myriad Pro;}.cls-3{clip-path:url(#clip-path);}.cls-4{clip-path:url(#clip-path-2);}.cls-5{font-size:20.24px;}.cls-6{clip-path:url(#clip-path-3);}</style><clipPath id="clip-path" transform="translate(33.68 3.3)"><rect class="cls-1" x="-2" y="2" width="25" height="25"/></clipPath><clipPath id="clip-path-2" transform="translate(33.68 3.3)"><rect class="cls-1" x="11.12" y="15.19" width="13" height="12.81"/></clipPath><clipPath id="clip-path-3" transform="translate(33.68 3.3)"><rect class="cls-1" x="39" y="5" width="4.07" height="4.36"/></clipPath></defs><text class="cls-2" transform="translate(53.68 27.28)">U Z</text><g class="cls-3"><path d="M10.5,4.6a9.9,9.9,0,1,0,9.9,9.91h0a9.9,9.9,0,0,0-9.9-9.9Zm.58,9.9a14.19,14.19,0,0,1,3.48-1.08,19.43,19.43,0,0,1-4.2,10.37,9.15,9.15,0,0,1-3.45-.72A14.47,14.47,0,0,0,11.08,14.5Zm4-1.15a14.81,14.81,0,0,1,3.26-.06,20,20,0,0,1-3,9.18A9.31,9.31,0,0,1,11,23.78,20.12,20.12,0,0,0,15.09,13.35ZM10.87,14a1.74,1.74,0,0,0-.2-.13,13.7,13.7,0,0,1-2.89-2.48c1.74-.75,6.12-2.51,10.9-1.62A9.37,9.37,0,0,1,19.78,13,14.55,14.55,0,0,0,10.87,14Zm7.45-4.82A20.11,20.11,0,0,0,7.44,11,11.33,11.33,0,0,1,6.1,8.79C6,8.66,6,8.54,5.93,8.42a15.3,15.3,0,0,1,9.44-2A9.42,9.42,0,0,1,18.32,9.21Zm-4.1-3.4A15.61,15.61,0,0,0,5.73,7.93c-.17-.43-.31-.86-.44-1.29a9.36,9.36,0,0,1,8.93-.83ZM4.85,7A16.28,16.28,0,0,0,5.62,9a12.64,12.64,0,0,0,4.76,5.32l.18.12a12.75,12.75,0,0,1-1,3.84,19.17,19.17,0,0,1-7-8.84A9.45,9.45,0,0,1,4.85,7ZM2.24,10a20.05,20.05,0,0,0,7.08,8.73A15.15,15.15,0,0,1,7.5,21.62a22.17,22.17,0,0,1-6.35-7.07h0v-.13A9.29,9.29,0,0,1,2.24,10Zm-1,5.69A22.74,22.74,0,0,0,7.17,22c-.24.28-.49.56-.76.83a9.42,9.42,0,0,1-5.17-7.12Zm15.13,6a20.88,20.88,0,0,0,2.49-8.38l1,.15c0,.3,0,.61,0,.92a9.39,9.39,0,0,1-3.52,7.32S16.37,21.74,16.38,21.73Z" transform="translate(33.68 3.3)"/></g><g class="cls-4"><path d="M13.32,17.16l.27-.27a.35.35,0,0,1,.47,0l.11.12a.27.27,0,0,1,.08.31.08.08,0,0,0,0,.1.11.11,0,0,0,.11,0h0a.32.32,0,0,1,.28.08.29.29,0,0,1,.06.31.11.11,0,0,0,0,.11.09.09,0,0,0,.09,0,.46.46,0,0,1,.39.12l.05.05a.33.33,0,0,1,0,.47l0,0-.23.23,2.45,2.41V15.72a.27.27,0,0,1,.27-.26h.37s.38.16.31.36h0v0a.28.28,0,0,1-.13.36.06.06,0,0,0,0,.08.1.1,0,0,0,.06.09h0a.35.35,0,0,1,.14.25.27.27,0,0,1-.18.26.13.13,0,0,0-.07.09.1.1,0,0,0,0,.09c.12.08.14.35.14.35v.06a.36.36,0,0,1-.36.36h-.32v3.68l2.74,2.7h0l.2-.2A.47.47,0,0,1,21,23.9l.74-.08a.14.14,0,0,1,.15.12.15.15,0,0,1,0,.11l-.77.75,1,.95a.13.13,0,0,1-.19.19h0l-1-1-.77.76a.15.15,0,0,1-.09,0,.14.14,0,0,1-.14-.14h0l.09-.73a.51.51,0,0,1,.13-.29l.21-.19h0l-2.55-2.51v3.54H18a.51.51,0,0,1,.31.11l.58.46a.13.13,0,0,1,0,.19.16.16,0,0,1-.11.05H17.76V27.6a.13.13,0,0,1-.14.13.13.13,0,0,1-.13-.13V26.27H16.41a.14.14,0,0,1-.14-.14.12.12,0,0,1,.05-.1l.58-.46a.51.51,0,0,1,.31-.11h.28V21.65l-2.64-2.6-1.34-1.32-.2-.19A.27.27,0,0,1,13.32,17.16Zm4.75.43a.1.1,0,0,0,.1-.1v0s0-.1,0-.13A.35.35,0,0,1,18,17a.35.35,0,0,1,.22-.29s0,0,0,0,0,0,0,0a.35.35,0,0,1-.2-.28.34.34,0,0,1,.15-.34c.05,0,.08-.09,0-.14v0c.06-.06,0-.1,0-.1h-.37v1.87ZM20.26,25l0,.33h0l1.18-1.16h0l-.34,0a.24.24,0,0,0-.16.07l-.56.56A.25.25,0,0,0,20.26,25Zm-3,.78a.27.27,0,0,0-.17.06l-.26.21h1.66l-.26-.21a.27.27,0,0,0-.17-.06Zm-3.53-8.2,1.15,1.13.24-.23a.11.11,0,0,0,0-.15l0,0a.18.18,0,0,0-.12-.05h0a.41.41,0,0,1-.35-.11.37.37,0,0,1-.06-.39s0,0,0,0h0a.39.39,0,0,1-.35-.05.35.35,0,0,1-.14-.35.17.17,0,0,0-.05-.15l0,0a.1.1,0,0,0-.14,0l-.25.24Z" transform="translate(33.68 3.3)"/></g><text x="33.68" y="3.3"/><text class="cls-5" transform="translate(71.68 27.24) scale(1.24 1)">I</text><g class="cls-6"><path d="M41,5.47A1.67,1.67,0,0,0,39.41,7.2a1.61,1.61,0,1,0,3.22,0A1.67,1.67,0,0,0,41,5.47Zm-.38,3.21.11-.07-.32-.53-.58-.16,0,.13a1.63,1.63,0,0,1-.24-.79l.1.09.38-.49,0-.63H39.9a1.44,1.44,0,0,1,.63-.49l-.06.13.55.23.55-.23,0-.13a1.42,1.42,0,0,1,.62.49H42l0,.63.37.49.1-.09a1.63,1.63,0,0,1-.24.79l0-.14-.57.16-.32.54.11.07a1.76,1.76,0,0,1-.39.06A1.27,1.27,0,0,1,40.64,8.68Z" transform="translate(33.68 3.3)"/><path d="M41.57,7.09,41,6.63l-.55.46.21.68h.68Z" transform="translate(33.68 3.3)"/></g></svg>