<svg id="Ebene_1" data-name="Ebene 1" xmlns="http://www.w3.org/2000/svg" xmlns:xlink="http://www.w3.org/1999/xlink" viewBox="0 0 1320.07 680.7"><defs><style>.cls-1{fill:none;}.cls-2{font-size:626.21px;}.cls-2,.cls-4,.cls-6{fill:#fff;}.cls-2,.cls-6{font-family:MyriadPro-Regular, Myriad Pro;}.cls-3{clip-path:url(#clip-path);}.cls-5{clip-path:url(#clip-path-2);}.cls-6{font-size:451.2px;}.cls-7{clip-path:url(#clip-path-3);}</style><clipPath id="clip-path" transform="translate(-310.93 -206.47)"><rect class="cls-1" x="253" y="240.65" width="557.34" height="557.34"/></clipPath><clipPath id="clip-path-2" transform="translate(-310.93 -206.47)"><rect class="cls-1" x="545.6" y="534.73" width="289.82" height="285.56"/></clipPath><clipPath id="clip-path-3" transform="translate(-310.93 -206.47)"><rect class="cls-1" x="1167.03" y="307.53" width="90.67" height="97.15"/></clipPath></defs><text class="cls-2" transform="translate(432.54 524.14)">U Z</text><g class="cls-3"><path class="cls-4" d="M531.66,298.71C404.6,298.68,302.61,406,311.47,535,319,643.81,407.09,732,515.9,739.51c129,8.93,236.35-93,236.38-220.07v-.11c0-121.84-98.78-220.62-220.62-220.62Zm13,220.63a305.7,305.7,0,0,1,77.47-24C608.89,609,564.33,683.58,528.5,726.52a207.68,207.68,0,0,1-76.76-16C505.65,654.19,537.68,588.35,544.66,519.34ZM634,493.58a331.24,331.24,0,0,1,72.73-1.17A448,448,0,0,1,639.36,697a207.7,207.7,0,0,1-95.69,29.33C579.63,680.72,621.66,605.33,634,493.58Zm-94.17,15.18-4.31-2.9a302.26,302.26,0,0,1-64.5-55.24c38.67-16.72,136.31-55.9,242.92-36A207.28,207.28,0,0,1,738.64,485C635.78,467.23,567.68,496.21,539.87,508.76Zm166-107.31c-108.85-16.79-206.33,24.07-242.47,39.81A247.1,247.1,0,0,1,433.52,392c-1.3-2.78-2.45-5.53-3.65-8.29,61-36.68,131.74-51.87,210.43-45A210.76,210.76,0,0,1,705.9,401.45Zm-91.22-75.83a346.82,346.82,0,0,0-189.3,47.25c-3.8-9.64-7-19.19-9.76-28.77A208.55,208.55,0,0,1,614.7,325.51c.16.07.14.12,0,.11ZM405.62,351.31A335.28,335.28,0,0,0,423,396.85C454.32,465.4,504.83,499.24,529.1,515.5l4,2.7a283.88,283.88,0,0,1-22.73,85.63C474.48,577,391.45,512.21,355.12,406.64A210.74,210.74,0,0,1,405.62,351.31Zm-58.14,68.52c39.68,105.18,123.28,169,157.9,194.76a334.82,334.82,0,0,1-40.52,63.46A492.17,492.17,0,0,1,323.31,520.34l-.07,0c0-1-.08-1.88-.08-2.83A207.75,207.75,0,0,1,347.48,419.83Zm-22.13,126.8A510.93,510.93,0,0,0,457.45,687c-5.35,6.24-11,12.35-16.92,18.38A209.6,209.6,0,0,1,325.24,546.67C325.22,546.52,325.27,546.5,325.35,546.63ZM662.64,680.56a464.75,464.75,0,0,0,55.67-186.84c7.11.88,14.38,1.95,21.86,3.32.66,6.75,1,13.59,1,20.51a208.74,208.74,0,0,1-78.46,163.08C662.6,680.73,662.56,680.7,662.64,680.56Z" transform="translate(-310.93 -206.47)"/></g><g class="cls-5"><path class="cls-4" d="M594.45,578.65l6-5.94a7.55,7.55,0,0,1,10.55,0l2.56,2.49c1.85,1.8,2.73,4.61,1.58,6.91a1.87,1.87,0,0,0,.58,2.38,2.36,2.36,0,0,0,2.38.37l.69-.18a7.1,7.1,0,0,1,6.17,1.78,6.34,6.34,0,0,1,1.43,7,2.26,2.26,0,0,0,.37,2.35,2,2,0,0,0,2,.72,10,10,0,0,1,8.7,2.7l1.19,1.17a7.32,7.32,0,0,1,0,10.45l-.64.63-5.22,5.14,54.63,53.79V546.59a6,6,0,0,1,6-5.91h8.23s8.39,3.5,6.87,8.06h0v.79c1.56,3.22-.06,6.25-2.78,8a1.88,1.88,0,0,0-.83,1.87,2.29,2.29,0,0,0,1.42,1.92l.6.35a6.93,6.93,0,0,1,3.11,5.55,6.4,6.4,0,0,1-4,5.9,2.29,2.29,0,0,0-1.42,1.92,1.93,1.93,0,0,0,.9,1.92c2.63,1.83,3,8,3,8v1.34a8,8,0,0,1-8,7.91h-7.07v82l61,60.13h0L759,732a10.84,10.84,0,0,1,6.44-3l16.49-1.8a3,3,0,0,1,3.33,2.63,3,3,0,0,1-.86,2.42L767.35,749l21.35,21a3,3,0,0,1,.07,4.21,3.06,3.06,0,0,1-4.27.07l-.07-.07-21.34-21L746,770.05a3.05,3.05,0,0,1-2.14.87,3,3,0,0,1-3-3c0-.11,0-.22,0-.33l1.83-16.25a10.56,10.56,0,0,1,3.1-6.35l4.48-4.41h0l-56.76-55.92v79.08h6.35a10.9,10.9,0,0,1,6.73,2.32l13,10.23a3,3,0,0,1,.47,4.18,3,3,0,0,1-2.36,1.12H693.52v29.74a3,3,0,0,1-6,0V781.62H663.33a3,3,0,0,1-3-3,3,3,0,0,1,1.14-2.32l13-10.23a10.92,10.92,0,0,1,6.73-2.32h6.34v-85l-58.89-58-29.89-29.45L594.42,587A5.89,5.89,0,0,1,594.45,578.65Zm105.94,9.62a2.29,2.29,0,0,0,2.19-2.31v-1s.63-2.35-.36-3.08a7.76,7.76,0,0,1-3.46-7.65,8.26,8.26,0,0,1,5.09-6.57.48.48,0,0,0,.25-.41c0-.15-.18-.38-.46-.63a8.21,8.21,0,0,1-4.61-6.36,7.7,7.7,0,0,1,3.38-7.59c1.08-.68,1.72-1.87.17-3.13v-.8c1.5-1.27-.83-2.13-.83-2.13h-8.23v41.66Zm48.85,164-.83,7.3s0,.06.05,0l26.13-25.74s0-.06,0-.05l-7.42.81a6.13,6.13,0,0,0-3.61,1.7L751,748.71A5.89,5.89,0,0,0,749.24,752.28Zm-67,17.44a6.11,6.11,0,0,0-3.77,1.3l-5.83,4.59s0,.06,0,.06h37c.05,0,.06,0,0-.06L703.76,771a6,6,0,0,0-3.77-1.3ZM603.56,586.89l25.62,25.22L634.4,607a2.32,2.32,0,0,0,0-3.27l-.57-.56a4,4,0,0,0-2.76-1.1l-.42,0a8.76,8.76,0,0,1-7.76-2.55,8.18,8.18,0,0,1-1.47-8.63.46.46,0,0,0-.11-.46,1.18,1.18,0,0,0-.78-.13,8.4,8.4,0,0,1-7.82-1.28,7.71,7.71,0,0,1-3.07-7.74,3.56,3.56,0,0,0-1-3.38l-.58-.57a2.38,2.38,0,0,0-3.32,0l-5.44,5.32Z" transform="translate(-310.93 -206.47)"/></g><text x="-310.93" y="-206.47"/><text class="cls-6" transform="translate(833.81 523.32) scale(1.24 1)">I</text><g class="cls-7"><path class="cls-4" d="M1212.13,318.09c-19.84,0-35.89,17.2-35.89,38.45s16,38.45,35.89,38.45,35.89-17.2,35.89-38.45S1232,318.09,1212.13,318.09Zm-8.6,71.54L1206,388l-7.18-11.84-12.75-3.64-.76,3A35.63,35.63,0,0,1,1180,358l2.26,2,8.31-10.93-.66-14.07-2.83.21a31.43,31.43,0,0,1,14-10.83l-1.23,2.83,12.28,5.06,12.28-5.06-1-2.93a32.8,32.8,0,0,1,14,10.83l-2.84-.21-.66,14.07,8.31,10.93,2.27-2a36.92,36.92,0,0,1-5.29,17.6l-.76-3-12.75,3.64-7.17,11.84,2.45,1.62a30.56,30.56,0,0,1-8.59,1.32A28.48,28.48,0,0,1,1203.53,389.63Z" transform="translate(-310.93 -206.47)"/><path class="cls-4" d="M1224.41,354.09,1212.13,344l-12.28,10.12,4.72,15.17h15.11Z" transform="translate(-310.93 -206.47)"/></g></svg>