<svg width="96" height="96" xmlns="http://www.w3.org/2000/svg" xmlns:xlink="http://www.w3.org/1999/xlink" overflow="hidden"><defs><clipPath id="clip0"><rect x="0" y="0" width="96" height="96"/></clipPath></defs><g clip-path="url(#clip0)"><path d="M79.819 14.766 78.031 12.978C76.9457 11.8947 75.1883 11.8947 74.103 12.978L73.911 13.168C73.1373 13.9249 72.7987 15.0217 73.011 16.083 73.0591 16.3258 72.9624 16.5744 72.763 16.721 72.5426 16.9039 72.2396 16.9512 71.974 16.844L71.745 16.783C71.0068 16.6419 70.2458 16.8653 69.701 17.383 69.0875 17.9955 68.9015 18.9163 69.229 19.719 69.3377 19.9846 69.29 20.2886 69.105 20.508 68.9503 20.7144 68.688 20.8095 68.437 20.75 67.3855 20.5671 66.3105 20.9052 65.553 21.657L65.364 21.846C64.279 22.9308 64.2789 24.6897 65.3637 25.7747 65.3638 25.7748 65.3639 25.7749 65.364 25.775L67.093 27.503 49 45.586 49 3.989C48.9939 2.88873 48.1003 1.99998 47 2L44.466 2C42.9323 1.99945 41.6886 3.24231 41.688 4.776 41.688 4.77633 41.688 4.77667 41.688 4.777L41.688 5.045C41.6752 6.12799 42.211 7.14397 43.112 7.745 43.3182 7.88203 43.4259 8.12637 43.388 8.371 43.3632 8.65679 43.1823 8.90541 42.918 9.017L42.718 9.135C42.0948 9.55491 41.7115 10.2489 41.688 11 41.6874 11.867 42.2075 12.6496 43.007 12.985 43.2713 13.0966 43.4522 13.3452 43.477 13.631 43.5138 13.8862 43.396 14.139 43.177 14.275 42.3057 14.8905 41.7845 15.8883 41.777 16.955L41.777 17.223C41.777 18.7567 43.0203 20 44.554 20 44.5543 20 44.5547 20 44.555 20L47 20 47 47.586 26.787 67.8 26.787 67.8 25.408 66.422C24.7659 65.7799 23.9245 65.3754 23.022 65.275L17.705 64.685C17.156 64.625 16.6623 65.0213 16.6022 65.5704 16.5693 65.8712 16.6744 66.1707 16.888 66.385L22.544 72.042 15.474 79.112C15.0767 79.4957 15.0657 80.1287 15.4494 80.526 15.8331 80.9233 16.4662 80.9343 16.8634 80.5506 16.8718 80.5425 16.88 80.5343 16.888 80.526L23.958 73.456 29.615 79.112C29.8025 79.2995 30.0568 79.4049 30.322 79.405 30.8743 79.405 31.322 78.9574 31.3221 78.4051 31.3221 78.3683 31.32 78.3316 31.316 78.295L30.726 72.978C30.6255 72.075 30.2206 71.2332 29.578 70.591L28.2 69.213 28.2 69.213 47 50.414 47 77 45.051 77C44.1424 76.9996 43.2606 77.3085 42.551 77.876L38.372 81.219C37.9407 81.5639 37.8706 82.1932 38.2155 82.6245 38.406 82.8628 38.6949 83.0011 39 83L47 83 47 93C47 93.5523 47.4477 94 48 94 48.5523 94 49 93.5523 49 93L49 83 57 83C57.5523 83.0003 58.0002 82.5528 58.0005 82.0005 58.0006 81.6964 57.8624 81.4089 57.625 81.219L53.445 77.876C52.7354 77.3085 51.8536 76.9996 50.945 77L49 77 49 48.414 68.506 28.908 78.406 19.008 79.828 17.586C80.601 16.8035 80.5969 15.5436 79.819 14.766ZM44.556 18C44.1288 17.9946 43.7835 17.6502 43.777 17.223L43.777 16.955C43.7839 16.5459 43.9814 16.1634 44.311 15.921 45.1605 15.3589 45.6075 14.3555 45.457 13.348 45.3325 12.3621 44.689 11.5186 43.771 11.138 43.7205 11.1103 43.6888 11.0576 43.688 11 43.688 10.951 43.747 10.872 43.841 10.791 44.6783 10.3814 45.2526 9.577 45.368 8.652 45.5191 7.65639 45.083 6.66282 44.248 6.1 43.8898 5.87134 43.6773 5.47187 43.688 5.047L43.688 4.777C43.6945 4.3498 44.0398 4.00537 44.467 4L47 3.994 47 18ZM28.737 73.2 29.011 75.656C29.011 75.672 29.005 75.676 28.994 75.664L20.338 67.008C20.326 66.997 20.33 66.99 20.346 66.991L22.802 67.265C23.2548 67.3137 23.6774 67.5155 24 67.837L28.163 72C28.4856 72.3228 28.6882 72.7462 28.737 73.2ZM50.946 79C51.4002 79.0003 51.8409 79.1548 52.196 79.438L54.127 80.982C54.139 80.992 54.137 81 54.121 81L41.879 81C41.863 81 41.861 80.992 41.873 80.982L43.8 79.438C44.1548 79.1535 44.5962 78.9989 45.051 79ZM76.991 17.6 68.506 26.08 66.777 24.352C66.4777 24.0464 66.4777 23.5576 66.777 23.252L66.966 23.064C67.2109 22.8263 67.5387 22.6933 67.88 22.693 67.9258 22.6932 67.9715 22.6958 68.017 22.701 68.9643 22.8623 69.9296 22.5401 70.59 21.842 71.2917 21.047 71.4798 19.922 71.075 18.942 71.0592 18.8869 71.0736 18.8276 71.113 18.786 71.1913 18.7428 71.2822 18.7282 71.37 18.745 72.2514 19.0477 73.226 18.8848 73.961 18.312 74.774 17.7148 75.1697 16.7022 74.977 15.712 74.8847 15.2982 75.016 14.8663 75.323 14.574L75.515 14.384C75.8188 14.0803 76.3112 14.0803 76.615 14.384L78.415 16.172Z"/></g></svg>