<svg id="Ebene_1" data-name="Ebene 1" xmlns="http://www.w3.org/2000/svg" xmlns:xlink="http://www.w3.org/1999/xlink" viewBox="0 0 93.49 34.3"><defs><style>.cls-1{fill:none;}.cls-2{font-size:28.09px;}.cls-2,.cls-3,.cls-5{fill:#fff;}.cls-2,.cls-3{font-family:MyriadPro-Regular, Myriad Pro;}.cls-3{font-size:20.24px;}.cls-4{clip-path:url(#clip-path);}.cls-6{clip-path:url(#clip-path-2);}.cls-7{clip-path:url(#clip-path-3);}</style><clipPath id="clip-path" transform="translate(33.68 3.3)"><rect class="cls-1" x="-2" y="2" width="25" height="25"/></clipPath><clipPath id="clip-path-2" transform="translate(33.68 3.3)"><rect class="cls-1" x="10.24" y="15.42" width="13.18" height="12.94"/></clipPath><clipPath id="clip-path-3" transform="translate(33.68 3.3)"><rect class="cls-1" x="39" y="5" width="4" height="4"/></clipPath></defs><text class="cls-2" transform="translate(53.68 27.28)">U Z</text><text x="33.68" y="3.3"/><text class="cls-3" transform="translate(71.68 27.24) scale(1.24 1)">I</text><g class="cls-4"><path class="cls-5" d="M10.5,4.6a9.9,9.9,0,1,0,9.9,9.91h0a9.9,9.9,0,0,0-9.9-9.9Zm.58,10a14,14,0,0,1,3.47-1.08,19.35,19.35,0,0,1-4.2,10.37,9.25,9.25,0,0,1-3.44-.72A14.52,14.52,0,0,0,11.08,14.55Zm4-1.15a14.8,14.8,0,0,1,3.26-.06,20.15,20.15,0,0,1-3,9.18A9.28,9.28,0,0,1,11,23.83,20.11,20.11,0,0,0,15.09,13.4Zm-4.23.68L10.67,14a13.45,13.45,0,0,1-2.89-2.48C9.51,10.72,13.89,9,18.67,9.85A9.39,9.39,0,0,1,19.78,13,14.57,14.57,0,0,0,10.86,14.08Zm7.45-4.82A20.13,20.13,0,0,0,7.43,11.05,11.33,11.33,0,0,1,6.09,8.84l-.16-.37a15.29,15.29,0,0,1,9.44-2A9.39,9.39,0,0,1,18.31,9.26Zm-4.09-3.4A15.59,15.59,0,0,0,5.73,8a13.09,13.09,0,0,1-.44-1.29,9.35,9.35,0,0,1,8.93-.83ZM4.84,7a14.91,14.91,0,0,0,.78,2.05,12.51,12.51,0,0,0,4.76,5.32l.18.12a12.76,12.76,0,0,1-1,3.84c-1.61-1.2-5.34-4.11-7-8.84A9.41,9.41,0,0,1,4.84,7ZM2.23,10.09a20,20,0,0,0,7.09,8.73A15.15,15.15,0,0,1,7.5,21.67,22.06,22.06,0,0,1,1.15,14.6h0v-.13A9.29,9.29,0,0,1,2.23,10.09Zm-1,5.68a22.82,22.82,0,0,0,5.93,6.3c-.24.28-.5.56-.76.83a9.41,9.41,0,0,1-5.18-7.12Zm15.13,6a20.89,20.89,0,0,0,2.5-8.38l1,.15c0,.3,0,.61,0,.92a9.35,9.35,0,0,1-3.52,7.32Z" transform="translate(33.68 3.3)"/></g><g class="cls-6"><path class="cls-5" d="M12.46,17.41l.27-.27a.34.34,0,0,1,.48,0l.12.11a.28.28,0,0,1,.07.31.09.09,0,0,0,0,.11.11.11,0,0,0,.11,0h0a.32.32,0,0,1,.28.08.29.29,0,0,1,.06.32.12.12,0,0,0,0,.1.08.08,0,0,0,.09,0,.46.46,0,0,1,.4.13l.05.05a.32.32,0,0,1,0,.47l0,0-.23.23,2.48,2.44V16a.27.27,0,0,1,.28-.27h.37s.38.17.31.37h0v0a.28.28,0,0,1-.12.36.09.09,0,0,0,0,.09.11.11,0,0,0,.06.09h0a.32.32,0,0,1,.14.25.28.28,0,0,1-.18.27.1.1,0,0,0-.06.09.07.07,0,0,0,0,.08c.12.09.13.37.13.37v0a.36.36,0,0,1-.36.36H17v3.72l2.77,2.72h0l.2-.2a.54.54,0,0,1,.3-.13l.75-.09a.15.15,0,0,1,.15.12.14.14,0,0,1,0,.11l-.78.77,1,.95a.13.13,0,0,1,0,.19.15.15,0,0,1-.2,0h0l-1-.95-.78.76a.15.15,0,0,1-.1,0,.13.13,0,0,1-.13-.14h0l.08-.74a.42.42,0,0,1,.14-.28l.21-.2h0L17,22.21v3.58h.28a.51.51,0,0,1,.31.11l.59.46a.13.13,0,0,1,0,.19.14.14,0,0,1-.11.05H17V28a.14.14,0,0,1-.14.14.14.14,0,0,1-.14-.14V26.6h-1.1a.13.13,0,0,1-.13-.13.13.13,0,0,1,0-.11l.59-.46a.46.46,0,0,1,.3-.11h.29V21.94L14,19.31,12.65,18l-.19-.19A.26.26,0,0,1,12.46,17.41Zm4.82.43a.1.1,0,0,0,.1-.1v0s0-.11,0-.14a.35.35,0,0,1-.16-.35.4.4,0,0,1,.23-.3,0,0,0,0,0,0,0l0,0a.34.34,0,0,1-.21-.28.33.33,0,0,1,.15-.35c.05,0,.08-.08,0-.14v0c.07,0,0-.1,0-.1H17v1.88Zm2.22,7.45,0,.33h0l1.19-1.17h0l-.34,0a.24.24,0,0,0-.16.07l-.57.56A.27.27,0,0,0,19.5,25.29Zm-3.05.77a.27.27,0,0,0-.17.06l-.27.21H17.7l-.27-.21a.27.27,0,0,0-.17-.06Zm-3.58-8.27L14,18.94l.24-.24a.11.11,0,0,0,0-.15l0,0a.18.18,0,0,0-.12-.05h0a.4.4,0,0,1-.36-.12.36.36,0,0,1-.06-.39v0h0a.39.39,0,0,1-.36-.06.35.35,0,0,1-.14-.35.16.16,0,0,0-.05-.16l0,0a.11.11,0,0,0-.15,0l-.25.24Z" transform="translate(33.68 3.3)"/></g><g class="cls-7"><path class="cls-5" d="M41,5.42A1.58,1.58,0,1,0,42.6,7,1.58,1.58,0,0,0,41,5.42Zm-.38,2.94.11-.06-.32-.49-.56-.15,0,.12a1.35,1.35,0,0,1-.24-.72l.1.08.37-.45,0-.58h-.12a1.29,1.29,0,0,1,.61-.44l-.05.11L41,6l.54-.21,0-.12a1.43,1.43,0,0,1,.61.45H42l0,.58.37.45.1-.08a1.51,1.51,0,0,1-.24.72l0-.12-.56.15-.32.48.11.07a1.58,1.58,0,0,1-.38.05A1.27,1.27,0,0,1,40.64,8.36Z" transform="translate(33.68 3.3)"/><path class="cls-5" d="M41.56,6.92,41,6.5l-.54.42.21.62h.66Z" transform="translate(33.68 3.3)"/></g></svg>