<svg width="96" height="96" xmlns="http://www.w3.org/2000/svg" xmlns:xlink="http://www.w3.org/1999/xlink" overflow="hidden"><defs><clipPath id="clip0"><rect x="0" y="0" width="96" height="96"/></clipPath></defs><g clip-path="url(#clip0)"><path d="M48.0023 10.0027C27.0096 9.9979 9.98781 27.0119 9.983 48.0046 9.9782 68.9973 26.9922 86.0191 47.9849 86.0239 68.9776 86.0287 85.9994 69.0147 86.0042 48.022 86.0042 48.0191 86.0042 48.0163 86.0042 48.0134 86.0159 27.0324 69.0169 10.0144 48.0359 10.0027 48.0247 10.0027 48.0135 10.0027 48.0023 10.0027ZM50.1531 48.3213C54.3973 46.3562 58.8845 44.9653 63.4961 44.1855 61.2161 63.7727 53.5405 76.6128 47.3699 84.0078 42.8272 83.9354 38.3398 82.9985 34.1477 81.2471 43.4329 71.5493 48.9507 60.2083 50.1531 48.3213ZM65.5488 43.8848C69.7046 43.3577 73.9058 43.29 78.0764 43.6831 77.1276 56.1962 73.1417 68.2893 66.464 78.9141 61.4644 81.9178 55.8058 83.6525 49.9818 83.967 56.176 76.12 63.4156 63.1328 65.5488 43.8848ZM49.3279 46.5C49.1013 46.3457 48.8579 46.1819 48.5859 46 44.4526 43.3672 40.7121 40.1637 37.4751 36.4844 44.1362 33.6044 60.9536 26.8567 79.3182 30.2817 81.4552 34.0347 82.8943 38.1438 83.5659 42.41 65.8472 39.3462 54.1179 44.3374 49.3279 46.5ZM77.9254 28.0151C59.1763 25.123 42.3854 32.1616 36.1614 34.8735 34.1189 32.2551 32.3896 29.4068 31.0088 26.3867 30.7859 25.9067 30.5865 25.4336 30.3801 24.9585 40.887 18.64 53.0729 16.0244 66.6262 17.2061 71.1333 19.9453 74.9892 23.6339 77.9254 28.0151ZM62.2127 14.9551C50.7893 14.4912 39.4728 17.3154 29.6069 23.0922 28.9526 21.433 28.3942 19.7878 27.9252 18.1371 38.0658 11.3024 50.9869 10.0962 62.2173 14.9358 62.2437 14.9467 62.2413 14.9554 62.2127 14.9547ZM26.2032 19.38C27.0083 22.0635 28.0073 24.6849 29.1924 27.2235 34.5918 39.0312 43.2924 44.8603 47.4724 47.661 47.7236 47.8292 47.9514 47.9823 48.1624 48.1259 47.6381 53.2172 46.3173 58.1945 44.2483 62.8759 38.064 58.2532 23.762 47.0945 17.5049 28.9106 19.8117 25.2396 22.7577 22.0117 26.2032 19.38ZM16.1881 31.1824C23.0242 49.2979 37.4243 60.2854 43.3864 64.7292 41.4787 68.6237 39.1371 72.2903 36.4064 75.6592 26.4032 68.4821 18.0833 59.2122 12.0254 48.4941L12.0129 48.501C12.0107 48.3379 12.0005 48.177 12.0005 48.0134 11.9952 42.1446 13.4333 36.3645 16.1881 31.1824ZM12.3768 53.0234C18.3592 62.4542 26.0815 70.6606 35.1316 77.2046 34.2089 78.2798 33.2306 79.3323 32.217 80.3696 21.4774 75.1085 14.0404 64.8701 12.358 53.03 12.3543 53.0039 12.3629 53.001 12.3768 53.0234ZM70.4751 76.0913C75.9104 66.1624 79.1786 55.1939 80.0641 43.9094 81.2883 44.0603 82.5398 44.2458 83.8289 44.481 83.9426 45.6436 84.0042 46.821 84.0042 48.0134 84.0036 58.9444 79.0304 69.2815 70.49 76.1041 70.4681 76.1219 70.4613 76.1162 70.4751 76.0913Z" fill="#FFFFFF"/></g></svg>